<svg version="1.1" id="Layer_1" xmlns="http://www.w3.org/2000/svg" xmlns:xlink="http://www.w3.org/1999/xlink" x="0px" y="0px"
	 width="500px" height="500px" viewBox="0 0 500 500" enable-background="new 0 0 500 500" xml:space="preserve">
<g>
	<path fill="#269BBB" d="M239.394,10.607c5.833-5.833,15.38-5.833,21.213,0l228.787,228.786c5.833,5.833,5.833,15.38,0,21.213
		L260.606,489.394c-5.833,5.833-15.379,5.833-21.213,0L110.607,360.606c-5.833-5.833-5.833-15.379,0-21.213l28.786-28.786
		c5.834-5.834,15.38-5.833,21.213,0l78.787,78.787c5.833,5.833,15.38,5.833,21.213,0l128.788-128.788
		c5.833-5.833,5.833-15.379,0-21.213L260.606,110.607c-5.833-5.833-15.379-5.833-21.213,0L60.607,289.395
		c-5.833,5.834-15.379,5.833-21.213,0l-28.787-28.788c-5.833-5.833-5.833-15.379,0-21.213L239.394,10.607z"/>
</g>
<g>
	<path fill="#269BBB" d="M239.394,210.606c5.833-5.833,15.38-5.833,21.213,0l28.788,28.787c5.833,5.833,5.833,15.38,0,21.213
		l-28.788,28.788c-5.833,5.833-15.379,5.833-21.213,0l-28.787-28.788c-5.833-5.833-5.833-15.379,0-21.213L239.394,210.606z"/>
</g>
</svg>
