<?xml version="1.0" encoding="UTF-8"?>
<svg version="1.1" xmlns="http://www.w3.org/2000/svg" width="500" height="500">
<path d="M0 0 C2.62093538 1.28674712 4.30060895 2.90964881 6.36644989 4.97861981 C7.23829619 5.84449297 8.11014249 6.71036612 9.00840837 7.60247785 C9.97147582 8.57410467 10.93440396 9.5458696 11.8972078 10.51775765 C12.92297039 11.54221254 13.94939176 12.56600815 14.97641593 13.58919829 C17.80175172 16.40781025 20.61762174 19.23571794 23.43207461 22.06519115 C26.46683534 25.11288063 29.51023328 28.15192296 32.5526033 31.19201303 C37.82420668 36.46204166 43.0902798 41.73754494 48.35265976 47.016783 C55.96122652 54.64970803 63.57804206 62.27435732 71.19691065 69.89699786 C83.55712788 82.26378455 95.91062771 94.63725899 108.25993973 107.01493478 C120.25773109 119.04025389 132.25866236 131.06242503 144.26384598 143.08036447 C145.00356999 143.82087665 145.743294 144.56138883 146.50543389 145.32434077 C150.21634942 149.03917135 153.92732694 152.75394001 157.63833529 156.46867788 C188.43555683 187.29701074 219.22189321 218.13619641 250.00115067 248.98246408 C248.51302811 252.44124274 246.55218236 254.68021762 243.89756447 257.33214593 C243.03318367 258.20050883 242.16880286 259.06887173 241.2782287 259.96354866 C240.31343029 260.9226411 239.34853954 261.88164066 238.38356644 262.84055734 C237.3625873 263.86240846 236.34204771 264.8846989 235.32191104 265.90739107 C232.51472551 268.71905546 229.70133033 271.52443417 226.88690096 274.32884502 C223.85398334 277.35313824 220.8268348 280.38319614 217.79898697 283.41256356 C212.55135603 288.661244 207.30007111 293.90624561 202.04629761 299.14877725 C194.45019802 306.72863349 186.85961688 314.31399616 179.27037801 321.90072086 C166.95765554 334.2090644 154.64047192 346.51293354 142.32048661 358.81400704 C130.35167469 370.76446529 118.3849619 382.71701906 106.42107254 394.67240548 C105.68381008 395.4091425 104.94654762 396.14587951 104.18694387 396.90494189 C100.48838517 400.60089055 96.78986776 404.29688054 93.09137088 407.99289107 C62.40103142 438.66249186 31.70345306 469.3248393 1.00115067 499.98246408 C-2.47200955 498.34122638 -4.7399293 496.48841502 -7.46607345 493.75574899 C-8.35505829 492.86951348 -9.24404312 491.98327798 -10.15996689 491.07018685 C-11.13727859 490.08579744 -12.11449401 489.10131242 -13.09162277 488.11674142 C-14.12625272 487.0815472 -15.16132351 486.04679343 -16.1968016 485.0124476 C-19.00469015 482.20513296 -21.80636876 479.3916938 -24.60697979 476.5771215 C-27.53555944 473.63604088 -30.46980235 470.70062157 -33.40345138 467.76459908 C-38.95701788 462.20481597 -44.50546635 456.63995417 -50.05209798 451.07325351 C-56.36734905 444.73564915 -62.68827884 438.40372164 -69.00969404 432.07226658 C-82.01241176 419.04864272 -95.00797445 406.01790047 -107.99884933 392.98246408 C-101.74427017 385.60076773 -101.74427017 385.60076773 -98.56379074 382.43388009 C-97.96362137 381.83378625 -97.36345199 381.23369241 -96.74509567 380.6154139 C-96.11985 379.99532952 -95.49460434 379.37524514 -94.85041183 378.73637033 C-93.86432434 377.75240525 -93.86432434 377.75240525 -92.85831589 376.7485621 C-90.78252071 374.6783114 -88.70325506 372.61158756 -86.62384933 370.54496408 C-85.20564853 369.13178546 -83.78767757 367.71837614 -82.36994308 366.3047297 C-78.91556156 362.86130343 -75.45806564 359.42103308 -71.99884933 355.98246408 C-67.22248234 359.96781348 -62.71301164 364.12728352 -58.3291716 368.53861642 C-57.7039209 369.16372109 -57.07867019 369.78882577 -56.4344725 370.43287301 C-54.39235082 372.47568487 -52.35378261 374.52200314 -50.31525558 376.56840158 C-48.89058362 377.9949409 -47.46568901 379.42125791 -46.04058212 380.84736276 C-42.30824247 384.58350252 -38.57891696 388.32263669 -34.85022873 392.06242013 C-31.03766604 395.88525105 -27.22223611 399.70521794 -23.40705246 403.52543283 C-15.93485562 411.00832274 -8.46584255 418.49438184 -0.99884933 425.98246408 C1.89111971 424.67300917 3.9570207 423.27593336 6.1951471 421.0345633 C6.80573873 420.42795377 7.41633035 419.82134424 8.04542476 419.1963526 C9.03764879 418.19539004 9.03764879 418.19539004 10.04991776 417.17420602 C10.75979002 416.46604261 11.46966227 415.7578792 12.20104581 415.0282563 C14.58418295 412.64841969 16.96009032 410.26149345 19.33611161 407.87455392 C21.04068392 406.16941761 22.74569646 404.46472128 24.4511171 402.76043344 C28.12471401 399.08729231 31.79522627 395.41109837 35.46296555 391.73210931 C40.76590377 386.41291639 46.07435661 381.09925527 51.38417122 375.78692766 C59.99885888 367.16786285 68.60907082 358.54434126 77.2164827 349.91801095 C85.57774578 341.53838958 93.94110706 333.16087155 102.30730301 324.78617501 C102.82300235 324.26995022 103.33870169 323.75372544 103.87002829 323.22185747 C106.45715566 320.63212003 109.04432437 318.04242389 111.63151366 315.4527483 C133.09447408 293.96905476 154.5501022 272.47805187 176.00115067 250.98246408 C174.69169576 248.09249503 173.29461995 246.02659404 171.0532499 243.78846765 C170.44664036 243.17787602 169.84003083 242.56728439 169.21503919 241.93818998 C168.21407664 240.94596595 168.21407664 240.94596595 167.19289261 239.93369699 C166.4847292 239.22382473 165.77656579 238.51395247 165.04694289 237.78256893 C162.66710628 235.3994318 160.28018004 233.02352442 157.89324051 230.64750314 C156.1881042 228.94293082 154.48340787 227.23791829 152.77912003 225.53249764 C149.10597891 221.85890073 145.42978496 218.18838847 141.7507959 214.52064919 C136.43160298 209.21771098 131.11794186 203.90925813 125.80561425 198.59944353 C117.18654944 189.98475587 108.56302785 181.37454392 99.93669754 172.76713204 C91.55707618 164.40586896 83.17955814 156.04250768 74.80486161 147.67631173 C74.28863682 147.16061239 73.77241203 146.64491305 73.24054407 146.11358646 C70.65080662 143.52645909 68.06111049 140.93929037 65.47143489 138.35210109 C43.98774135 116.88914066 22.49673846 95.43351254 1.00115067 73.98246408 C-2.18034361 75.38839257 -4.31859708 77.05319004 -6.77068847 79.50820756 C-7.51016574 80.24370273 -8.249643 80.9791979 -9.01152867 81.7369808 C-9.81697645 82.54825426 -10.62242422 83.35952771 -11.45227951 84.19538522 C-12.74372505 85.48426749 -12.74372505 85.48426749 -14.0612604 86.79918778 C-16.45020687 89.18540729 -18.83457843 91.57603817 -21.21713966 93.96862316 C-23.78743818 96.54755153 -26.36350664 99.12070481 -28.93888229 101.69456124 C-33.40016926 106.15479907 -37.8577772 110.6186867 -42.31291336 115.08506799 C-48.75431106 121.54271371 -55.20121857 127.99483549 -61.649488 134.44561861 C-72.11100339 144.9115122 -82.56804384 155.38186514 -93.02228683 165.85502267 C-103.17814771 176.02923912 -113.33610522 186.20135471 -123.49689621 196.37064767 C-124.43622347 197.31076311 -124.43622347 197.31076311 -125.39452705 198.26987077 C-128.53606507 201.41401885 -131.67764442 204.55812562 -134.81924433 207.70221186 C-160.88552451 233.78922842 -186.94454955 259.8834824 -212.99884933 285.98246408 C-215.98725348 284.54713472 -218.12568632 283.11853069 -220.49811691 280.78959298 C-221.16172729 280.14197 -221.82533767 279.49434701 -222.50905746 278.82709908 C-223.56554741 277.77865319 -223.56554741 277.77865319 -224.64338058 276.70902658 C-225.37256195 275.98887368 -226.10174331 275.26872079 -226.85302109 274.52674508 C-228.38962118 273.00463509 -229.92343969 271.47971262 -231.45465988 269.95219064 C-233.80794001 267.61085609 -236.17922321 265.28881794 -238.55158371 262.96683908 C-240.04166127 261.48621994 -241.53063256 260.00448645 -243.01838058 258.52152658 C-244.09005226 257.47915338 -244.09005226 257.47915338 -245.18337387 256.41572213 C-245.83122345 255.76179482 -246.47907303 255.10786752 -247.14655441 254.43412423 C-247.72295166 253.86279763 -248.29934891 253.29147103 -248.89321274 252.70283151 C-249.99884933 250.98246408 -249.99884933 250.98246408 -249.81603694 249.14697081 C-248.74061617 246.29847498 -247.18060001 244.78562454 -245.02948421 242.62998891 C-244.16956125 241.76100931 -243.30963829 240.89202971 -242.42365706 239.99671739 C-241.45872161 239.03688654 -240.49364278 238.07719982 -239.52843612 237.11764169 C-238.51096351 236.0952823 -237.4941433 235.07227327 -236.4779222 234.04866987 C-233.67848161 231.23278021 -230.86969766 228.42637382 -228.05930144 225.62142408 C-225.03204438 222.59683103 -222.01339503 219.56366809 -218.99360031 216.53162789 C-213.07466951 210.59161585 -207.14747858 204.6599128 -201.21710827 198.73132374 C-196.39935213 193.91487362 -191.58415379 189.09588098 -186.77077049 184.27506089 C-185.3859485 182.88813979 -184.00112575 181.50121944 -182.61630225 180.11429983 C-181.92711673 179.42407078 -181.23793121 178.73384173 -180.52786127 178.02269665 C-167.48612616 164.96204907 -154.43441701 151.91140361 -141.3798146 138.86361931 C-129.42480121 126.91418493 -117.48305213 114.9515933 -105.54738923 102.98283347 C-93.30294388 90.70469768 -81.04928944 78.43582235 -68.7856729 66.17683417 C-61.89618795 59.28959825 -55.01053257 52.39863176 -48.13459724 45.49786592 C-42.28236775 39.62468353 -36.42159445 33.76019828 -30.54940321 27.90697148 C-27.55120768 24.91797008 -24.55725511 21.92501206 -21.57393974 18.92115235 C-18.84638255 16.17501971 -16.107691 13.44054497 -13.35940424 10.71516267 C-12.36374157 9.72371988 -11.37234244 8.72797442 -10.38554504 7.72770753 C-9.05043063 6.37560866 -7.69854202 5.04013333 -6.34573787 3.70573354 C-5.59747146 2.95719474 -4.84920504 2.20865593 -4.07826388 1.43743414 C-1.99884933 -0.01753592 -1.99884933 -0.01753592 0 0 Z " fill="#FFFFFF" transform="translate(249.9988493323326,0.017535924911499023)"/>
<path d="M0 0 C3.44510314 1.6303695 5.72001988 3.46238571 8.43598938 6.16183472 C9.31800522 7.03387543 10.20002106 7.90591614 11.10876465 8.80438232 C12.07823712 9.77295908 13.0475936 10.74165194 14.0168457 11.71044922 C15.043285 12.72926548 16.07012521 13.74767796 17.09733582 14.76571655 C19.88293089 17.52938296 22.6619402 20.29958004 25.43913293 23.07168722 C27.17353878 24.80244974 28.90923561 26.53190684 30.64537621 28.26092911 C36.69907439 34.29014538 42.74704179 40.32504952 48.7902832 46.36474609 C54.42939728 52.00021854 60.08152672 57.62240448 65.73968822 63.23874652 C70.59442023 68.05884643 75.43954629 72.88846203 80.2773425 77.72555935 C83.16822125 80.61564333 86.06298004 83.50157058 88.96761513 86.37783432 C91.69630638 89.08046389 94.41290801 91.7946745 97.12053108 94.51840591 C98.11797663 95.51767506 99.11973881 96.51265606 100.12599564 97.50305176 C101.49511225 98.85188733 102.84753741 100.21760408 104.19892883 101.584198 C104.96158711 102.34484495 105.7242454 103.10549191 106.51001453 103.88918877 C108 106 108 106 107.99253845 107.99636555 C106.67917192 110.6476547 105.01010236 112.37416389 102.92045593 114.47395325 C102.04137573 115.36438324 101.16229553 116.25481323 100.25657654 117.17222595 C99.27496902 118.15119018 98.29319775 119.12999023 97.3112793 120.10864258 C96.28254201 121.14471914 95.25443005 122.18141691 94.22689819 123.21868896 C91.43441504 126.03340663 88.63234374 128.83838929 85.82777762 131.64106202 C83.48903324 133.97968685 81.1546432 136.32263474 78.82013255 138.66548461 C73.31495333 144.18990321 67.80163018 149.70610219 62.28344727 155.2175293 C56.58461064 160.90971751 50.90071136 166.61651987 45.22376126 172.33052903 C40.35284064 177.23209341 35.47235992 182.12399341 30.58414394 187.00830954 C27.66300385 189.92737739 24.74580461 192.85013438 21.83792686 195.7824192 C19.10503671 198.53748725 16.3604648 201.28034544 13.60628891 204.01412964 C12.59574118 205.0212519 11.58947375 206.03268941 10.58778191 207.04862022 C9.2235627 208.4308901 7.84246799 209.79644501 6.460495 211.16096497 C5.69117488 211.93099759 4.92185476 212.70103022 4.12922192 213.49439716 C2 215 2 215 -0.08737087 214.90880203 C-2.1615895 213.92321937 -3.44503977 212.92471001 -5.06256104 211.29820251 C-5.92905273 210.4378968 -5.92905273 210.4378968 -6.81304932 209.56021118 C-7.43451843 208.92795624 -8.05598755 208.29570129 -8.69628906 207.64428711 C-9.36011597 206.98089828 -10.02394287 206.31750946 -10.70788574 205.63401794 C-12.90098412 203.43882903 -15.08326458 201.2332039 -17.265625 199.02734375 C-18.78383017 197.5035436 -20.3026989 195.98040431 -21.82220459 194.457901 C-25.82042315 190.4482261 -29.80955111 186.42962374 -33.796875 182.40911865 C-37.86696101 178.30834902 -41.94554893 174.21605495 -46.0234375 170.12304688 C-54.02398585 162.09032041 -62.0149596 154.04814044 -70 146 C-72.80387058 147.27886769 -74.85248535 148.60381048 -77.02459717 150.78408813 C-77.59384415 151.35058578 -78.16309113 151.91708344 -78.74958801 152.50074768 C-79.36170639 153.12005661 -79.97382477 153.73936554 -80.60449219 154.37744141 C-81.25856552 155.03122269 -81.91263885 155.68500397 -82.58653259 156.3585968 C-84.74475514 158.51821138 -86.89580936 160.6848212 -89.046875 162.8515625 C-90.54287809 164.35129616 -92.03932369 165.85058853 -93.53619385 167.34945679 C-97.47300225 171.29389812 -101.40376734 175.24430894 -105.33331299 179.19598389 C-109.34488498 183.22802153 -113.36213094 187.25439714 -117.37890625 191.28125 C-125.25817445 199.18196213 -133.13107125 207.0889909 -141 215 C-144.04581486 213.63886987 -146.13839026 212.10669904 -148.48339844 209.74365234 C-149.47397247 208.75285172 -149.47397247 208.75285172 -150.48455811 207.74203491 C-151.18574768 207.03052277 -151.88693726 206.31901062 -152.609375 205.5859375 C-153.69958954 204.49147812 -153.69958954 204.49147812 -154.81182861 203.37490845 C-157.12929198 201.0462612 -159.4396995 198.71075174 -161.75 196.375 C-163.32115444 194.79381347 -164.89276371 193.21307875 -166.46484375 191.6328125 C-170.31518653 187.7604331 -174.15976117 183.88239829 -178 180 C-176.68215894 177.08579235 -175.264463 175.01515366 -173.00524712 172.75915146 C-172.3881874 172.13810964 -171.77112768 171.51706783 -171.13536918 170.87720656 C-170.45638796 170.20405103 -169.77740675 169.5308955 -169.07785034 168.83734131 C-167.99722924 167.75415694 -167.99722924 167.75415694 -166.89477742 166.64909005 C-164.47348282 164.22449459 -162.04509675 161.80712828 -159.61669922 159.38964844 C-157.88200664 157.65551984 -156.14775402 155.92095105 -154.41390991 154.18597412 C-150.6769239 150.4485323 -146.93689044 146.71418099 -143.19405746 142.98259735 C-137.78255762 137.58735156 -132.37658881 132.18659161 -126.971954 126.78446987 C-118.20314633 118.02003945 -109.42988162 109.26008466 -100.65380859 100.50292969 C-92.12867954 91.99615865 -83.60565357 83.48728957 -75.08544922 74.97558594 C-74.56026344 74.45092561 -74.03507767 73.92626528 -73.49397717 73.38570616 C-70.85928752 70.75362657 -68.22463917 68.12150564 -65.59001136 65.48936415 C-43.73307529 43.65316151 -21.86882999 21.82429124 0 0 Z M-1.411026 74.29077148 C-2.01281174 74.89477783 -2.61459747 75.49878418 -3.23461914 76.12109375 C-4.25556419 77.1421521 -4.25556419 77.1421521 -5.2971344 78.18383789 C-6.03568161 78.92754639 -6.77422882 79.67125488 -7.53515625 80.4375 C-8.28840683 81.19216553 -9.04165741 81.94683105 -9.81773376 82.72436523 C-12.23500041 85.14725201 -14.64877645 87.57358399 -17.0625 90 C-18.69573565 91.63824806 -20.32919619 93.27627195 -21.96289062 94.9140625 C-25.9778784 98.94010598 -29.99000183 102.96898712 -34 107 C-29.97251947 111.83298806 -25.75620587 116.38110004 -21.2890625 120.80859375 C-20.36956314 121.72597069 -20.36956314 121.72597069 -19.43148804 122.66188049 C-17.49835436 124.58947559 -15.56175013 126.51353928 -13.625 128.4375 C-12.30315301 129.75432404 -10.98153628 131.07137926 -9.66015625 132.38867188 C-6.44275701 135.59512373 -3.22224319 138.79841629 0 142 C2.95265112 140.67005617 5.02350216 139.22220684 7.29980469 136.92724609 C7.92014587 136.30675385 8.54048706 135.6862616 9.17962646 135.04696655 C9.83706848 134.37920197 10.4945105 133.71143738 11.171875 133.0234375 C11.8542926 132.33819 12.53671021 131.6529425 13.23980713 130.94692993 C15.41461598 128.76094155 17.58236072 126.56809571 19.75 124.375 C21.2247999 122.89016745 22.70005506 121.40578694 24.17578125 119.921875 C27.78915448 116.2864709 31.39620853 112.64490176 35 109 C33.65599882 106.00811074 32.16903084 103.9202238 29.85131836 101.60839844 C28.8953904 100.64785553 28.8953904 100.64785553 27.92015076 99.66790771 C27.23364944 98.98859192 26.54714813 98.30927612 25.83984375 97.609375 C25.13477188 96.90476135 24.42970001 96.20014771 23.70326233 95.47418213 C22.21526641 93.98920295 20.72484513 92.50665063 19.23217773 91.02636719 C16.93739001 88.74989089 14.65076006 86.46545876 12.36523438 84.1796875 C10.91974304 82.73910936 9.47379527 81.29898904 8.02734375 79.859375 C7.33881821 79.17196228 6.65029266 78.48454956 5.94090271 77.77630615 C5.30676956 77.14855286 4.67263641 76.52079956 4.01928711 75.87402344 C3.45906357 75.31761169 2.89884003 74.76119995 2.32164001 74.18792725 C0.48150467 72.5339618 0.42496188 72.61125544 -1.411026 74.29077148 Z " fill="#FFFFFF" transform="translate(249,142)"/>
</svg>
